<!--?xml version="1.0" encoding="utf-8"?-->
<!-- Generator: Adobe Illustrator 22.1.0, SVG Export Plug-In . SVG Version: 6.00 Build 0)  -->
<svg version="1.1" id="_x38_" xmlns="http://www.w3.org/2000/svg" xmlns:xlink="http://www.w3.org/1999/xlink" x="0px" y="0px" viewBox="0 0 800 701.998" style="enable-background:new 0 0 800 701.998;" xml:space="preserve">
<style type="text/css">
	.st0{fill:#040000;}
</style>
<g>
	<path class="st0" d="M596.936,428.185c9.954-4.227,16.638-10.673,7.934-17.853c-8.739-7.224-6.789-5.977-12.599-19.635
		c-5.868-13.783-56.164-55.286-74.487-55.704c-18.408-0.427-92.754,25.545-109.095,31.092c-16.354,5.548-20.526,5.227-13.173,26.194
		c7.266,20.681,23.869,68.924,28.698,86.414c4.774,17.275,8.559,58.15,1.254,70.069c-7.274,11.849-23.331,41.297-28.745,49.02
		c-5.403,7.707-31.933,34.151-38.347,39.749c-6.407,5.599-10.931,10.278-6.059,10.466c4.86,0.188,10.954,4.356,12.993,6.633
		c2.036,2.266,4.438,5.489,3.305,7.313c-1.129,1.836-4.359,0.152-5.681-0.832c-1.324-0.985-14.77-4.618-8.77,0.305
		c6.001,4.899,6.075,6.145,5.871,7.696c-0.203,1.544-4.054,0.164-7.004-1.809c-2.972-1.973-8.56-5.305-9.821-5.352
		c-1.258-0.047-1.023,3.09,1.637,5.063c2.652,1.965,5.868,7.364,6.38,10.169c0.519,2.801-0.105,7.106-5.63,4.144
		c-5.547-2.976-10.477-9.984-20.646-15.024c-10.231-5.075-15.174-7.142-24.537-8.743c-9.395-1.613-15.744-7.871-12.142-14.099
		c3.602-6.242,11.848-11.036,20.138-7.821c8.262,3.2,16.36,4.797,19.986,2.395c3.638-2.403,9.849-12.696,12.466-16.114
		c2.606-3.418,44.665-58.876,47.739-66.682c3.083-7.841,6.505-21.397,3.997-31.675c-2.531-10.345-12.924-59.466-16.213-70.271
		c-3.321-10.876-14.392-48.801-16.662-52.626c-2.278-3.825-2.493-7.149-6.075-4.84c-3.575,2.293-35.687,14.575-40.742,19.681
		c-5.051,5.098-9.962,48.902-10.294,53.13c-0.324,4.219,2.777,29.608,6.519,50.876c3.693,20.97,3.458,42.152-5.969,58.314
		c-9.352,16.049-19.653,24.435-24.756,29.104c-5.082,4.673-6.614,9.158-1.402,12.619c5.185,3.453,8.282,5.524,9.227,8.778
		c0.942,3.259-2.169,7.942-7.028,4.216c-4.891-3.739-6.692-5.747-9.883-8.461c-3.18-2.712-7.732,0.656-4.02,5.325
		c3.699,4.657,5.488,6.332,6.614,7.981c1.125,1.644,1.793,5.192-2.387,5.348c-4.18,0.153-5.144-3.09-7.774-6.711
		c-2.645-3.649-6.4-8.635-9.274-8.107c-2.868,0.523-0.582,3.84,1.449,7.794c2.036,3.93,4.793,12.032,4.575,16.169
		c-0.235,4.121-6.516,5.794-7.571-1.238c-1.05-7.071-5.11-17.834-11.962-21.018c-6.891-3.187-20.248-2.441-27.643-6.641
		c-7.426-4.223-14.333-15.013-8.958-20.053c5.391-5.051,13.282-8.661,25.889-2.48c12.513,6.141,21.827,10.473,27.104,4.488
		c5.29-6.005,23.24-37.96,24.466-53.349c1.234-15.529-1.305-32.436-3.879-42.25c-2.594-9.872-3.11-30.217,1.109-50.868
		c4.259-20.885,5.485-34.199,1.051-37.785c-4.438-3.602-6.235-4.461-11.451,2.473c-5.199,6.911-131.487,248.952-137.902,265.668
		c-6.372,16.572-34.964,14.057-26.643-0.843c8.372-15.006,146.016-262.84,145.048-272.649c-0.965-9.88-35.784-22.31-78.804-35.511
		c-43.8-13.442-92.039-52.309-127.975-106.33C3.071,217.386-9.559,177.792,13.767,127.119C37.605,75.366,93.892,6.754,194.28,2.289
		c98.469-4.384,150.614,19.357,161.272,30.303c10.56,10.86,38.734,61.111,32.084,83.269c-6.586,21.912-38.823,93.759-72.888,124.929
		c-33.756,30.882-100.876,50.161-145.123,35.636c-45.066-14.786-50.266-39.699-68.689-65.432
		c-18.756-26.202-28.554-80.429-16.995-109.853c11.705-29.792,60.158-55.521,71.909-54.998c11.724,0.528,40.286-7.715,58.068-7.329
		c17.708,0.387,56.533-1.085,80.112,19.705c23.209,20.463,34.683,58.263,31.386,85.18c-3.255,26.553-28.647,56.239-51.243,72.838
		c-22.498,16.529-47.946,31.906-84.738,16.228c-37.418-15.943-51.806-35.655-59.013-57.418c-7.313-22.065-7.559-61.041,3.778-75.558
		c11.391-14.595,31.647-33.569,60.228-32.839c28.389,0.727,55.696,8.416,68.128,21.323c12.317,12.794,26.154,36.84,17.318,64.818
		c-8.735,27.625-23.174,46.896-57.646,47.54c-34.742,0.649-54.75-18.095-58.497-31.14c-3.77-13.142-6.54-30.58,1.687-45.223
		c8.278-14.739,17.647-19.799,31.328-19.974c13.649-0.191,32.092,2.785,41.038,9.884c8.899,7.059,11.649,21.115,7.246,30.03
		c-4.399,8.875-14.638,26.369-29.662,24.787c-15.087-1.586-18.17-9.536-21.436-19.247c-3.289-9.766,6.708-22.444,13.169-18.271
		c6.43,4.137,3.238,9.79,5.45,16.872c2.207,7.044,9.336,11.197,14.528,3.274c5.215-7.949,6.688-24.076-7.571-31.713
		c-14.357-7.693-20.717-3.199-30.538,4.375c-9.794,7.552-13.638,14.022-10.196,24.691c3.425,10.582,6.316,30.33,25.537,35.671
		c19.075,5.301,43.309-3.876,53.18-25.518c9.97-21.842,10.607-40.644-6.997-53.911c-17.806-13.419-46.351-25.568-64.099-19.692
		c-17.759,5.875-41.304,21.647-45.261,46.457c-3.915,24.517,6.754,50.223,30.432,66.865c23.353,16.408,57.478,26.322,76.382,17.537
		c18.916-8.775,60.579-43.406,57.317-77.46c-3.313-34.714-16.626-72.194-53.887-83.827c-37.8-11.81-83.894-2.125-106.42,11.328
		c-22.482,13.419-47,40.703-43.3,69.054c3.637,27.905,9.758,63.192,39.921,87.762c29.585,24.072,58.748,35.679,87.41,31.104
		c28.546-4.551,68.709-24.092,83.899-42.105c15.278-18.126,52.379-84.445,36.823-124.128
		c-15.935-40.684-54.254-60.752-82.777-65.275C238.166,18.278,133.262,13.254,96.826,56.2
		c-35.925,42.347-57.451,90.242-60.267,113.122c-2.786,22.616,5.336,64.225,23.849,81.563
		c18.267,17.114,54.189,49.871,94.458,67.505c39.519,17.294,60.447,25.932,71.249,34.464c10.727,8.465,27.74,18.674,33.377,26.6
		c5.607,7.883,8.158,20.674,26.214,13.873c18.053-6.786,120.062-61.572,133.383-68.022c13.329-6.446,97.141-27.21,118.585-22.975
		c21.279,4.204,40.417,17.978,48.239,32.832c7.727,14.711,22.38,37.112,27.994,51.277c5.548,14.029,5.466,19.713,10.575,16.545
		c5.109-3.161,5.477-25.343-3.368-31.116c-8.899-5.813-15.868-16.611-10.036-19.791c5.832-3.173,15.379,4.227,18.701-2.817
		c3.337-7.063,26.225-25.768,61.821-18.173c35.125,7.5,41.484,32.71,40.36,43.382c-1.118,10.607-0.86,18.42,2.832,18.709
		c3.691,0.297,14.224-0.984,14.544,4.684c0.313,5.644-6.469,6.52-5.351,8.712c1.11,2.184,1.902,10.614-5.403,10.063
		c-7.337-0.563-9.579-4.919-10.997-0.844c-1.418,4.078-0.933,6.895,6.806,11.642c7.691,4.714,52.036,48.567,58.024,65.572
		c5.903,16.794,9.833,60.174-2.59,73.405c-12.38,13.18-13.111,15.645-13.111,15.645s-13.841,19.826-25.143,26.697
		c-11.267,6.857-26.689,16.588-32.335,26.706c-5.613,10.079-12.981,21.83-13.751,26.596c-0.777,4.758-4.371,8.786-9.461,8.005
		c-5.114-0.785-6.637-5.63-4.7-11.552c1.941-5.946,7.941-12.352,4.539-13.7c-3.399-1.355-5.715-0.844-9.262,1.442
		c-3.547,2.277-13.505,6.727-22.795,8.169c-9.314,1.449-17.353-1.903-19.06-3.786c-1.703-1.895-3.341-7.445,4.824-7.118
		c8.154,0.336,23.295-1.473,29.843-6.684c6.559-5.231,2.012-7.875-2.653-7.461c-4.671,0.41-15.18,1.18-18.681,1.035
		c-3.504-0.152-9.322-1.633-18.095-2.629c-8.81-0.996-14.564-9.318-7.45-10.856c7.11-1.548,14.743,0.039,22.924,1.648
		c8.16,1.601,19.212,3.324,23.302,2.89c4.095-0.429,4.86-5.957-2.105-6.891c-6.99-0.946-26.276-4.313-31.569-5.184
		c-5.297-0.867-10.06,0.785-11.775-2.415c-1.719-3.215-0.492-5.664,12.532-5.055c12.974,0.617,25.889,1.843,32.831,4.673
		c6.915,2.8,10.274,6.68,11.532,4.258c1.254-2.426-0.285-8.095-11.267-12.365c-11.044-4.297-23.353-7.419-29.92-5.837
		c-6.56,1.567-14.287,1.829-17.217-0.207c-2.949-2.043,1.953-9.415,9.754-11.563c7.791-2.149,27.991-2.395,39.692,1.367
		c11.63,3.739,15.072,5.793,17.044,15.29c1.954,9.434,1.207,13.744,8.114,15.298c6.879,1.552,8.442-7.657,12.462-6.844
		c4.02,0.801,8.203-2.095,9.509-5.134c1.305-3.047,4.707-1.641,6.469-2.176c1.758-0.539,5.922-2.825,7.887-7.087
		c1.958-4.277,4.81-3.508,7.248-5.891c2.45-2.379,20.549-24.745,17.298-47.934c-3.305-23.55-21.65-68.55-39.007-83.989
		c-17.603-15.649-21.294-15.231-22.017-12.528c-0.716,2.707-1.68,11.544-6.025,13.29c-4.339,1.746-13.532,1.797-15.383,2.352
		c-1.859,0.555-8.642,1.453-11.072,0.598c-2.43-0.848-4.254-1.656-10.497,1.332c-6.235,2.992-9.982,4.786-18.423-4.7
		c-8.517-9.567-8.962-18.626-19.03-15.169c-10.071,3.454-34.659,16.978-62.993,30.237c-28.295,13.239-52.474,41.629-52.93,50.344
		c-0.457,8.661,6.692,22.342,9.301,29.081c2.59,6.707,18.38,32.835,19.068,39.929c0.695,7.063,2.015,17.286,5.082,19.33
		c3.048,2.031,6.72,6.61,6.747,9.125c0.008,2.508,1.297,13.192,6.708,14.037c5.407,0.855,7.782-4.024,13.782-3.766
		c5.985,0.258,14.357-3.735,19.127-3.532c4.769,0.212,17.872-1.703,21.994,0.336c4.121,2.043-0.68,7.399-11.943,8.782
		c-11.298,1.378-22.006,2.168-29.76,3.082c-7.774,0.918-6.559,5.915-0.59,6.778c5.95,0.851,23.765-0.269,30.867-1.207
		c7.094-0.946,13.028-3.156,17.219-7.907c4.2-4.762,14.697,1.238,3.997,8.77c-10.681,7.52-21.315,10.763-32.518,11.545
		c-11.247,0.785-19.557-1.985-24.909-2.809c-5.372-0.828-7.712,5.829,4.184,7.509c11.837,1.664,35.378,4.379,46.504,4.195
		c11.094-0.184,12.107,9.489-3.019,8.341c-15.209-1.164-36.383-1.942-44.657-4.063c-8.302-2.133-12.505-8.997-15.47-6.056
		c-2.945,2.942-0.523,7.899,4.829,9.907c5.333,2.013,8.309,6.353,11.263,11.275c2.961,4.903,2.961,10.88-5.278,5.821
		c-8.285-5.094-14.258-12.54-20.853-18.845c-6.641-6.34-6.664-8.79-6.181-17.982c0.481-9.243,2.301-7.934-2.078-20.533
		c-4.414-12.727-6.931-18.514-8.805-21.763c-1.887-3.258-6.266-9.177-7.587-14.353c-1.332-5.188-3.977-14.973-5.289-18.92
		c-1.317-3.957-13.815-34.136-18.486-45.035c-4.704-10.978-3.844-26.467,6.024-39.476c9.895-13.08,39.48-36.702,48.343-42.363
		c8.872-5.664,10.15-4.176,15.865-4.477C569.094,443.987,584.817,433.334,596.936,428.185z" style="fill: rgb(255, 255, 255);"></path>
</g>
</svg>
